# xmcd
#
# Track frame offsets: 
#        150
#        13222
#        25669
#        37867
#        49522
#        61062
#        72007
#        82944
#        94157
#        106182
#        119814
#
# Disc length: 1748 seconds
#
# Revision: 3
# Processed by: cddbd v1.5.2PL0 Copyright (c) Steve Scherf et al.
# Submitted via: ExactAudioCopyFreeDBPlugin 1.0
#
DISCID=7f06d20b
DTITLE=Percy Sledge - When a Man Loves a Woman
DYEAR=1966
DGENRE=Soul
TTITLE0=When a Man Loves a Woman
TTITLE1=My Adorable One
TTITLE2=Put a Little Lovin'on Me
TTITLE3=Love Me All the Way
TTITLE4=When She Touches Me (Nothing Else Matters)
TTITLE5=You're Pouring Water on a Drowning Man
TTITLE6=Thief in the Night
TTITLE7=You Fooled Me
TTITLE8=Love Makes the World Go Round
TTITLE9=Success
TTITLE10=Love Me Like You Mean It
EXTD=
EXTT0=
EXTT1=
EXTT2=
EXTT3=
EXTT4=
EXTT5=
EXTT6=
EXTT7=
EXTT8=
EXTT9=
EXTT10=
PLAYORDER=
